<svg width="89" height="92" viewBox="0 0 89 92" fill="none" xmlns="http://www.w3.org/2000/svg">
<g clip-path="url(#clip0)">
<path d="M68.3614 39.2433C65.5965 33.8903 61.2233 29.6115 55.9008 27.0517C50.5783 24.492 44.5952 23.7902 38.8532 25.052C33.1112 26.3138 27.9216 29.4708 24.0667 34.0473C20.2118 38.6237 17.9005 44.3715 17.4812 50.4242C12.7071 50.9569 8.31197 53.3605 5.19973 57.1404C2.08749 60.9204 0.49475 65.7895 0.749092 70.7462C1.00343 75.703 3.08552 80.3705 6.56713 83.789C10.0487 87.2074 14.6652 89.1169 19.467 89.1246H63.967C70.0415 89.132 75.8988 86.7899 80.387 82.5587C84.8753 78.3275 87.6697 72.5135 88.2206 66.2602C88.7715 60.0069 87.039 53.7668 83.364 48.7672C79.6889 43.7675 74.3372 40.3702 68.3614 39.2433ZM63.967 84.8121H19.467C15.7619 84.8288 12.1898 83.3854 9.47805 80.7755C6.76626 78.1656 5.1186 74.5855 4.87049 70.764C4.62238 66.9426 5.79247 63.167 8.14256 60.206C10.4927 57.2449 13.8461 55.321 17.5202 54.8258C17.8142 58.6317 18.8592 62.3351 20.5907 65.7077C20.7203 65.9572 20.8963 66.178 21.1084 66.3572C21.3206 66.5365 21.5649 66.6708 21.8273 66.7525C22.0897 66.8342 22.3651 66.8617 22.6377 66.8333C22.9104 66.805 23.175 66.7215 23.4164 66.5874C23.6578 66.4534 23.8713 66.2715 24.0448 66.0522C24.2182 65.8329 24.3481 65.5804 24.4272 65.3091C24.5062 65.0379 24.5328 64.7532 24.5054 64.4714C24.478 64.1895 24.3971 63.916 24.2675 63.6664C21.5135 58.3388 20.8297 52.1257 22.3556 46.2947C23.8815 40.4638 27.502 35.4543 32.4786 32.2883C37.4552 29.1223 43.4129 28.0384 49.1362 29.2576C54.8595 30.4769 59.9171 33.9074 63.2773 38.8494C59.9439 38.9444 56.6649 39.7462 53.6437 41.2052C50.6224 42.6641 47.9233 44.749 45.7137 47.3307C45.5215 47.541 45.3723 47.7891 45.2748 48.0603C45.1774 48.3315 45.1337 48.6201 45.1464 48.9091C45.1591 49.1981 45.2279 49.4815 45.3488 49.7424C45.4697 50.0033 45.6401 50.2365 45.8499 50.4279C46.0597 50.6193 46.3047 50.7651 46.5701 50.8567C46.8356 50.9482 47.1162 50.9836 47.3952 50.9607C47.6741 50.9378 47.9458 50.8571 48.194 50.7235C48.4422 50.5898 48.6618 50.4059 48.8398 50.1827C51.0683 47.5703 53.8945 45.5767 57.0602 44.3843C60.226 43.1918 63.6304 42.8384 66.9623 43.3563C70.2942 43.8742 73.4475 45.247 76.134 47.3491C78.8205 49.4513 80.9546 52.2158 82.3412 55.3902C83.7279 58.5645 84.3229 62.0475 84.0719 65.5208C83.821 68.9941 82.7321 72.347 80.9046 75.2732C79.0772 78.1994 76.5695 80.6056 73.6107 82.2719C70.652 83.9382 67.3364 84.8115 63.967 84.8121Z" fill="#304956"/>
<path d="M88.7157 29.4835C88.5774 29.2353 88.3932 29.0177 88.1735 28.8432C87.9538 28.6687 87.7029 28.5407 87.4353 28.4665C87.1677 28.3922 86.8886 28.3733 86.6139 28.4106C86.3392 28.448 86.0743 28.541 85.8344 28.6843L77.435 33.6983C77.1841 33.8353 76.9625 34.0233 76.7834 34.2509C76.6044 34.4785 76.4716 34.7411 76.393 35.023C76.3144 35.3049 76.2915 35.6003 76.3259 35.8915C76.3602 36.1827 76.451 36.4638 76.5928 36.7179C76.7346 36.972 76.9245 37.194 77.1512 37.3705C77.3779 37.547 77.6367 37.6744 77.9121 37.7452C78.1875 37.816 78.4739 37.8286 78.7542 37.7824C79.0344 37.7361 79.3028 37.6319 79.5432 37.476L87.9426 32.462C88.4269 32.1727 88.7804 31.6966 88.9253 31.1381C89.0703 30.5797 88.9949 29.9846 88.7157 29.4835Z" fill="#304956"/>
<path d="M63.0664 22.6266C63.3064 22.7703 63.5715 22.8637 63.8465 22.9013C64.1215 22.9389 64.401 22.92 64.6689 22.8458C64.9368 22.7715 65.188 22.6434 65.4079 22.4686C65.6278 22.2938 65.8122 22.0759 65.9505 21.8274L70.801 13.1449C71.0563 12.6456 71.1143 12.0634 70.963 11.5208C70.8116 10.9781 70.4627 10.5173 69.9895 10.2351C69.5162 9.95291 68.9556 9.87136 68.4254 10.0076C67.8952 10.1438 67.4368 10.4872 67.1464 10.9656L62.2959 19.6481C62.0165 20.1488 61.9407 20.7437 62.0852 21.3021C62.2296 21.8605 62.5825 22.3369 63.0664 22.6266Z" fill="#304956"/>
<path d="M44.4977 17.4834C44.7749 17.4834 45.0494 17.427 45.3055 17.3173C45.5617 17.2076 45.7944 17.0469 45.9904 16.8443C46.1864 16.6416 46.3419 16.4011 46.448 16.1363C46.5541 15.8716 46.6087 15.5878 46.6087 15.3013V5.27615C46.6087 4.69741 46.3863 4.14238 45.9904 3.73315C45.5945 3.32393 45.0576 3.09402 44.4977 3.09402C43.9379 3.09402 43.4009 3.32393 43.005 3.73315C42.6092 4.14238 42.3868 4.69741 42.3868 5.27615V15.3013C42.3864 15.5881 42.4407 15.8721 42.5466 16.1372C42.6526 16.4023 42.808 16.6432 43.0041 16.8461C43.2001 17.0491 43.4329 17.2101 43.6892 17.3199C43.9455 17.4297 44.2203 17.4863 44.4977 17.4863V17.4834Z" fill="#304956"/>
<path d="M23.0462 21.8273C23.334 22.3119 23.7934 22.6613 24.3266 22.801C24.8598 22.9407 25.4248 22.8597 25.9011 22.5753C26.3774 22.2909 26.7275 21.8255 26.8769 21.2782C27.0263 20.7309 26.963 20.145 26.7007 19.6452L21.8502 10.9627C21.7126 10.7124 21.5284 10.4927 21.3082 10.3163C21.088 10.1399 20.8363 10.0103 20.5675 9.93501C20.2986 9.85967 20.018 9.84007 19.7418 9.87734C19.4656 9.91461 19.1993 10.008 18.9582 10.1522C18.7171 10.2963 18.5059 10.4884 18.337 10.7173C18.168 10.9462 18.0445 11.2074 17.9736 11.4858C17.9027 11.7643 17.8859 12.0545 17.924 12.3397C17.9621 12.6249 18.0544 12.8995 18.1957 13.1477L23.0462 21.8273Z" fill="#304956"/>
<path d="M11.5639 33.6976L3.16457 28.6836C2.9245 28.5376 2.65885 28.4421 2.38293 28.4027C2.10701 28.3633 1.82628 28.3808 1.55691 28.454C1.28754 28.5273 1.03485 28.655 0.813427 28.8296C0.591999 29.0043 0.406203 29.2226 0.266745 29.4718C0.127288 29.721 0.0369269 29.9963 0.000870138 30.2819C-0.0351866 30.5674 -0.0162262 30.8574 0.0566586 31.1353C0.129543 31.4132 0.254911 31.6735 0.425538 31.901C0.596164 32.1286 0.808674 32.3191 1.05082 32.4613L9.45298 37.4753C9.69328 37.6278 9.9607 37.729 10.2395 37.7729C10.5182 37.8168 10.8026 37.8025 11.076 37.7309C11.3493 37.6593 11.606 37.5318 11.8308 37.356C12.0557 37.1801 12.2442 36.9595 12.3853 36.7071C12.5263 36.4547 12.617 36.1757 12.652 35.8865C12.687 35.5972 12.6656 35.3037 12.589 35.0232C12.5124 34.7427 12.3823 34.4808 12.2062 34.2532C12.0302 34.0255 11.8118 33.8366 11.5639 33.6976Z" fill="#304956"/>
</g>
<defs>
<clipPath id="clip0">
<rect width="89" height="92" fill="white"/>
</clipPath>
</defs>
</svg>
