<svg width="93" height="74" viewBox="0 0 93 74" fill="none" xmlns="http://www.w3.org/2000/svg">
<path d="M75.5625 30.0625H87.1875V34.6875H75.5625V30.0625Z" fill="#304956"/>
<path d="M66.8438 17.5422L75.0626 11.0024L79.1721 14.2723L70.9532 20.8144L66.8438 17.5422Z" fill="#304956"/>
<path d="M66.8438 47.2074L70.9503 43.9375L79.1692 50.4772L75.0597 53.7471L66.8438 47.2074Z" fill="#304956"/>
<path d="M49.4062 4.625H55.2188V13.875H49.4062V4.625Z" fill="#304956"/>
<path d="M52.3125 18.5C51.3382 18.505 50.3661 18.5747 49.4062 18.7081V23.4534C50.3534 23.2456 51.3301 23.1352 52.3125 23.125C55.3956 23.125 58.3525 24.0996 60.5326 25.8343C62.7127 27.569 63.9375 29.9217 63.9375 32.375C63.9375 34.8283 62.7127 37.181 60.5326 38.9157C58.3525 40.6504 55.3956 41.625 52.3125 41.625V46.25C56.9372 46.25 61.3725 44.7882 64.6427 42.1861C67.9128 39.584 69.75 36.0549 69.75 32.375C69.75 28.6951 67.9128 25.166 64.6427 22.5639C61.3725 19.9618 56.9372 18.5 52.3125 18.5Z" fill="#304956"/>
<path d="M29.0625 46.6755V16.1875H23.25V46.6755C21.3109 47.221 19.6766 48.2944 18.636 49.706C17.5953 51.1176 17.2153 52.7764 17.5631 54.3894C17.9109 56.0023 18.9641 57.4655 20.5366 58.5204C22.1091 59.5752 24.0996 60.1537 26.1563 60.1537C28.213 60.1537 30.2035 59.5752 31.776 58.5204C33.3485 57.4655 34.4017 56.0023 34.7495 54.3894C35.0973 52.7764 34.7172 51.1176 33.6766 49.706C32.6359 48.2944 31.0016 47.221 29.0625 46.6755Z" fill="#304956"/>
<path d="M26.1588 69.375C22.1539 69.3786 18.2369 68.4406 14.8998 66.6788C11.5626 64.917 8.95405 62.4099 7.40159 59.4724C5.84913 56.5348 5.42201 53.2978 6.17386 50.1678C6.92571 47.0378 8.82302 44.1543 11.6275 41.8794V16.1875C11.6275 13.1209 13.1585 10.18 15.8836 8.01158C18.6088 5.84319 22.3048 4.625 26.1588 4.625C30.0127 4.625 33.7088 5.84319 36.4339 8.01158C39.1591 10.18 40.69 13.1209 40.69 16.1875V41.8794C43.4945 44.1543 45.3918 47.0378 46.1437 50.1678C46.8955 53.2978 46.4684 56.5348 44.916 59.4724C43.3635 62.4099 40.7549 64.917 37.4178 66.6788C34.0806 68.4406 30.1637 69.3786 26.1588 69.375ZM26.1588 9.25C23.8471 9.25184 21.6308 9.98334 19.9962 11.284C18.3617 12.5846 17.4423 14.3481 17.44 16.1875V43.8982L16.4752 44.5896C14.2806 46.1504 12.7334 48.2046 12.0384 50.4804C11.3434 52.7563 11.5334 55.1464 12.5832 57.3344C13.6329 59.5224 15.493 61.4052 17.9172 62.7335C20.3414 64.0618 23.2154 64.7731 26.1588 64.7731C29.1022 64.7731 31.9762 64.0618 34.4003 62.7335C36.8245 61.4052 38.6846 59.5224 39.7344 57.3344C40.7842 55.1464 40.9741 52.7563 40.2791 50.4804C39.5841 48.2046 38.037 46.1504 35.8424 44.5896L34.8775 43.8982V16.1875C34.8752 14.3481 33.9559 12.5846 32.3213 11.284C30.6867 9.98334 28.4704 9.25184 26.1588 9.25Z" fill="#304956"/>
</svg>
