<svg width="123" height="76" viewBox="0 0 123 76" fill="none" xmlns="http://www.w3.org/2000/svg">
<path d="M119.838 75.7284C121.075 75.9559 122.261 75.1245 122.424 73.8776C123.545 65.2786 123.027 56.521 120.891 48.1235C118.567 38.9873 114.384 30.4974 108.634 23.2467C102.884 15.996 95.7058 10.1593 87.6007 6.1442C79.4956 2.12909 70.659 0.0323339 61.7078 0.000370967C52.7566 -0.0315919 43.9067 2.002 35.7761 5.95915C27.6455 9.91629 20.4303 15.7016 14.6341 22.911C8.83803 30.1205 4.6008 38.5803 2.21835 47.6997C0.0283336 56.0825 -0.545888 64.8369 0.521193 73.4444C0.675803 74.6916 1.85571 75.5303 3.09327 75.3118C4.29972 75.0988 5.10892 73.9589 4.95984 72.7429C3.98496 64.7909 4.52071 56.7054 6.5437 48.962C8.75231 40.508 12.6804 32.6654 18.0536 25.982C23.4268 19.2985 30.1157 13.9353 37.653 10.2669C45.1904 6.59851 53.3945 4.71329 61.6926 4.74292C69.9907 4.77255 78.1826 6.71631 85.6964 10.4385C93.2101 14.1606 99.8645 19.5715 105.195 26.2931C110.525 33.0148 114.403 40.8852 116.558 49.3548C118.531 57.1129 119.015 65.2024 117.989 73.1476C117.832 74.3621 118.633 75.5069 119.838 75.7284Z" fill="url(#paint0_linear)"/>
<defs>
<linearGradient id="paint0_linear" x1="121.921" y1="73.6667" x2="-8.33308e-05" y2="72.5921" gradientUnits="userSpaceOnUse">
<stop stop-color="#FF9800"/>
<stop offset="1" stop-color="#061B67" stop-opacity="0.48"/>
</linearGradient>
</defs>
</svg>
