<svg width="47" height="47" viewBox="0 0 47 47" fill="none" xmlns="http://www.w3.org/2000/svg">
<path d="M37.7573 46.9856C36.1372 47.0786 34.5233 46.7183 33.0967 45.945C31.6701 45.1717 30.4873 44.0161 29.6811 42.6078C28.8748 41.1996 28.4771 39.5945 28.5324 37.9728C28.5878 36.351 29.0941 34.7768 29.9946 33.4268L36.0624 24.3955C36.2492 24.1176 36.5015 23.8899 36.7971 23.7325C37.0926 23.575 37.4224 23.4927 37.7573 23.4927C38.0921 23.4927 38.4219 23.575 38.7174 23.7325C39.013 23.8899 39.2653 24.1176 39.4521 24.3955L45.4092 33.2506C46.3946 34.7086 46.9419 36.4183 46.9866 38.1774C46.9267 40.568 45.9218 42.8374 44.1918 44.4884C42.4619 46.1394 40.148 47.0374 37.7573 46.9856ZM37.7573 27.8893L32.8305 35.2173C32.2506 36.06 31.9229 37.0505 31.8857 38.0727C31.8484 39.095 32.1032 40.1066 32.6202 40.9893C33.1371 41.872 33.8949 42.5891 34.8046 43.0567C35.7144 43.5242 36.7386 43.7229 37.7573 43.6294C39.2581 43.6816 40.7185 43.1374 41.8192 42.1157C42.9198 41.094 43.571 39.678 43.6305 38.1774C43.5916 37.0523 43.2241 35.9632 42.5733 35.0445L37.7573 27.8893Z" fill="#304956"/>
<path d="M15.1025 23.4928V15.1025H16.7806C18.5601 15.1003 20.2661 14.3924 21.5244 13.1341C22.7827 11.8758 23.4906 10.1698 23.4928 8.39029V3.35612H18.4586C16.7403 3.35893 15.0892 4.0243 13.849 5.21373C12.9801 3.63596 11.7039 2.32006 10.1536 1.40307C8.60326 0.486089 6.8354 0.00157566 5.03417 0H0V5.03417C0.00310879 7.70351 1.06488 10.2626 2.95238 12.1501C4.83989 14.0376 7.39901 15.0994 10.0683 15.1025H11.7464V23.4928H0V26.8489H23.4928V23.4928H15.1025ZM18.4586 6.71223H20.1367V8.39029C20.1358 9.28012 19.7819 10.1332 19.1527 10.7624C18.5235 11.3916 17.6704 11.7455 16.7806 11.7464H15.1025V10.0683C15.1034 9.17852 15.4573 8.3254 16.0865 7.6962C16.7157 7.067 17.5688 6.71312 18.4586 6.71223ZM10.0683 11.7464C8.28884 11.7442 6.58284 11.0363 5.32454 9.77799C4.06623 8.51968 3.35834 6.81369 3.35612 5.03417V3.35612H5.03417C6.81369 3.35834 8.51968 4.06623 9.77799 5.32454C11.0363 6.58284 11.7442 8.28884 11.7464 10.0683V11.7464H10.0683Z" fill="#304956"/>
<path d="M0 31.8833H23.4928V35.2394H0V31.8833Z" fill="#304956"/>
<path d="M0 40.2734H23.4928V43.6296H0V40.2734Z" fill="#304956"/>
</svg>
