<svg width="87" height="64" viewBox="0 0 87 64" fill="none" xmlns="http://www.w3.org/2000/svg">
<path d="M37.8809 38.5139C37.9353 38.5135 37.9891 38.5269 38.0384 38.5531C38.0876 38.5793 38.1311 38.6177 38.1655 38.6654L38.9513 39.6242C38.3532 40.4075 37.6109 41.0329 36.7765 41.4564C35.925 41.8945 34.896 42.1121 33.687 42.1121C32.6409 42.1121 31.6922 41.9055 30.8359 41.495C30.0042 41.1044 29.2572 40.5141 28.6465 39.7647C28.0234 38.9905 27.5451 38.0814 27.2404 37.0922C26.8994 35.9922 26.7306 34.8332 26.7417 33.6675C26.7417 32.4222 26.9169 31.2788 27.2623 30.2401C27.5723 29.2488 28.0639 28.343 28.705 27.5823C29.3461 26.8216 30.122 26.2231 30.9819 25.8263C31.904 25.4065 32.8903 25.1977 33.884 25.2119C34.9228 25.2119 35.8399 25.402 36.6354 25.7767C37.4284 26.1514 38.1266 26.6638 38.7323 27.3085L38.0804 28.3362C38.0408 28.4121 37.9868 28.4771 37.9223 28.5263C37.8439 28.5797 37.7533 28.6056 37.662 28.6007C37.5403 28.6007 37.3895 28.5263 37.2144 28.3748C36.6862 27.921 36.0893 27.5802 35.4531 27.3692C34.9397 27.2052 34.4076 27.129 33.8743 27.1432C33.1202 27.1432 32.4317 27.2948 31.8041 27.5896C31.1889 27.8778 30.638 28.3173 30.1912 28.8762C29.7412 29.4355 29.3885 30.1216 29.1379 30.9288C28.8773 31.8093 28.7506 32.7335 28.7633 33.662C28.7633 34.6924 28.8946 35.6099 29.1549 36.4172C29.4152 37.2244 29.7728 37.9077 30.2253 38.4643C30.6778 39.0208 31.2081 39.4479 31.8236 39.7399C32.439 40.032 33.1031 40.178 33.8159 40.178C34.2514 40.178 34.643 40.1504 34.9909 40.0898C35.3213 40.0396 35.6459 39.9491 35.9591 39.8198C36.2489 39.701 36.5256 39.5447 36.7838 39.3542C37.0392 39.1641 37.2922 38.9381 37.5452 38.6792C37.6352 38.579 37.7548 38.5201 37.8809 38.5139Z" fill="#304956"/>
<path d="M54.444 33.6696C54.444 34.9066 54.2713 36.0418 53.9234 37.0805C53.5982 38.0732 53.0993 38.9813 52.4565 39.7502C51.8152 40.5052 51.04 41.0977 50.182 41.4888C49.2473 41.9092 48.2489 42.118 47.2433 42.1032C46.1705 42.1032 45.1925 41.8993 44.3095 41.4888C43.4529 41.0976 42.6793 40.505 42.0398 39.7502C41.3957 38.9825 40.8965 38.0741 40.5729 37.0805C40.2169 35.9891 40.0404 34.833 40.0523 33.6696C40.0523 32.4297 40.225 31.2946 40.5729 30.2586C40.9208 29.2255 41.4098 28.33 42.0398 27.5834C42.6793 26.8266 43.4528 26.2314 44.3095 25.8366C45.2412 25.4102 46.2385 25.1985 47.2433 25.2139C48.3185 25.2139 49.2965 25.4206 50.182 25.8366C51.065 26.2499 51.8264 26.8367 52.4565 27.5834C53.089 28.3328 53.578 29.2255 53.9234 30.2586C54.2713 31.2946 54.444 32.4297 54.444 33.6696ZM52.4151 33.6696C52.4151 32.6529 52.2935 31.7409 52.0478 30.9364C51.8302 30.1801 51.4765 29.4831 51.0091 28.8893C50.5572 28.3283 50.0003 27.8887 49.3792 27.6027C48.699 27.2931 47.9714 27.1395 47.2384 27.1508C46.4575 27.1508 45.7496 27.3023 45.1098 27.6027C44.4879 27.8886 43.9303 28.3281 43.4775 28.8893C43.025 29.4459 42.6772 30.1292 42.4315 30.9364C42.1882 31.7437 42.0641 32.6529 42.0641 33.6696C42.0641 34.6835 42.1882 35.5927 42.4315 36.3972C42.6772 37.1989 43.0226 37.8795 43.4775 38.4388C43.9276 38.9981 44.4725 39.4224 45.1098 39.7172C45.7496 40.0147 46.4575 40.1635 47.2384 40.1635C48.0242 40.1635 48.7394 40.0147 49.3792 39.7172C50.0165 39.4224 50.559 38.9953 51.0091 38.4388C51.4591 37.8795 51.8021 37.1989 52.0478 36.3972C52.2959 35.5927 52.4151 34.6835 52.4151 33.6696Z" fill="#304956"/>
<path d="M64.3008 47.6099C64.4151 47.6099 64.5076 47.6485 64.5757 47.7257C64.6092 47.7646 64.6355 47.8107 64.6531 47.8614C64.6706 47.912 64.679 47.9661 64.6778 48.0205V48.7478H59V48.3373C59.0037 48.1444 59.0735 47.9606 59.1946 47.8248L61.9192 44.7253C62.1454 44.4635 62.3498 44.2156 62.5371 43.9731C62.722 43.7334 62.8801 43.4937 63.0115 43.2485C63.1428 43.006 63.2401 42.7608 63.3131 42.5129C63.3856 42.2545 63.4217 41.9849 63.4202 41.7139C63.4251 41.4602 63.3846 41.2081 63.301 40.9727C63.2316 40.772 63.1228 40.5919 62.9829 40.4458C62.843 40.2998 62.6755 40.1916 62.4933 40.1296C62.1033 39.9865 61.683 39.9885 61.294 40.1351C60.9463 40.2679 60.6503 40.5339 60.4572 40.8873C60.3622 41.0663 60.294 41.2617 60.2553 41.4659C60.209 41.6229 60.1433 41.7276 60.0631 41.78C59.9804 41.8323 59.8685 41.8461 59.7201 41.8241L59.1679 41.7139C59.2238 41.2758 59.3308 40.8873 59.4938 40.5484C59.652 40.2123 59.8563 39.9285 60.0996 39.6971C60.3428 39.4711 60.6202 39.2976 60.9315 39.1763C61.2453 39.0579 61.5835 39 61.9484 39C62.3084 39 62.6441 39.0606 62.9555 39.1791C63.2547 39.285 63.5305 39.4623 63.7642 39.699C63.9979 39.9356 64.1842 40.2262 64.3105 40.5512C64.4456 40.9077 64.5119 41.2929 64.5051 41.6808C64.5051 42.039 64.4589 42.3751 64.364 42.6782C64.2685 42.9872 64.1394 43.2815 63.9797 43.5543C63.8167 43.8353 63.6294 44.1053 63.4177 44.3698C63.2061 44.6343 62.9798 44.9016 62.7439 45.1716L60.4985 47.7642C60.6566 47.7174 60.8172 47.6761 60.9802 47.6485C61.1407 47.6182 61.2989 47.6044 61.4497 47.6044H64.3008V47.6099Z" fill="#304956"/>
<path d="M31.4155 63.1735C31.2722 63.1734 31.1302 63.1426 30.9971 63.0826C27.8244 63.0775 24.6519 63.0261 21.4805 62.9283C19.1864 62.8649 17.0579 62.8071 14.5936 62.8071C10.7247 62.8027 7.0154 61.0603 4.27948 57.9622C1.54357 54.864 0.00450797 50.6633 0 46.2815C0 40.7601 2.35969 35.7236 6.35169 32.6406C6.0248 30.8374 5.86016 29.0013 5.8603 27.1606C5.8603 12.1862 16.6176 0 29.844 0C34.1752 0.00482721 38.4248 1.33514 42.1434 3.85028C45.862 6.36541 48.9115 9.97188 50.9692 14.2884C52.3232 12.7161 53.9424 11.4681 55.7306 10.6185C57.5187 9.76893 59.4395 9.3351 61.3786 9.34281C63.5956 9.34492 65.783 9.91849 67.7752 11.02C69.7674 12.1216 71.5121 13.7222 72.8771 15.7007C74.2421 17.6792 75.1916 19.9835 75.6537 22.4392C76.1157 24.8949 76.0783 27.4375 75.5441 29.8744C78.605 30.8527 81.3002 32.9361 83.22 35.8081C85.1397 38.6801 86.1789 42.1834 86.1797 45.7856C86.1797 54.8997 79.6334 62.3166 71.5861 62.3166C67.8349 62.3166 59.3182 62.537 51.0836 62.752C42.7712 62.9724 34.9209 63.1735 31.4155 63.1735ZM29.844 2.56507C17.8679 2.56507 8.12511 13.5968 8.12511 27.1606C8.12511 29.1085 8.32945 31.0509 8.73084 32.9327C8.78708 33.1973 8.7674 33.4754 8.67467 33.7266C8.58194 33.9778 8.42097 34.189 8.21512 34.3295C6.39268 35.5657 4.88557 37.3176 3.84189 39.4131C2.79821 41.5086 2.25388 43.8756 2.26238 46.2815C2.26624 49.9832 3.56648 53.532 5.87781 56.1492C8.18913 58.7664 11.3228 60.2383 14.5911 60.242C17.0749 60.242 19.2205 60.2998 21.534 60.3632C24.2221 60.4348 27.1388 60.5147 31.0944 60.5147C31.2376 60.5151 31.3796 60.5459 31.5128 60.6057C35.0474 60.6002 43.1701 60.3908 51.0276 60.1869C59.2768 59.972 67.8057 59.7516 71.5837 59.7516C74.8527 59.7472 77.9867 58.2743 80.298 55.656C82.6093 53.0378 83.9092 49.488 83.9124 45.7856C83.9131 42.5383 82.9141 39.3923 81.0874 36.8894C79.2607 34.3865 76.7205 32.6833 73.9044 32.073C73.7454 32.0388 73.5947 31.9662 73.4626 31.8601C73.3305 31.7541 73.2201 31.6171 73.1389 31.4585C73.0576 31.2998 73.0075 31.1233 72.9918 30.9407C72.9762 30.7582 72.9954 30.574 73.0481 30.4006C73.6816 28.2977 73.8633 26.0539 73.578 23.8556C73.2928 21.6572 72.5489 19.5675 71.408 17.7598C70.2672 15.9522 68.7622 14.4786 67.018 13.4614C65.2738 12.4441 63.3405 11.9125 61.3786 11.9106C59.488 11.9045 57.6218 12.394 55.926 13.3409C54.2303 14.2878 52.7511 15.6664 51.6042 17.3686C51.4855 17.5458 51.3281 17.6848 51.1474 17.7718C50.9667 17.8588 50.7691 17.8908 50.5742 17.8646C50.3792 17.8384 50.1937 17.755 50.036 17.6226C49.8783 17.4901 49.7538 17.3133 49.6751 17.1097C47.9564 12.7806 45.1709 9.10547 41.6532 6.52547C38.1354 3.94547 34.0349 2.57029 29.844 2.56507Z" fill="#304956"/>
</svg>
