<svg width="41" height="56" viewBox="0 0 41 56" fill="none" xmlns="http://www.w3.org/2000/svg">
<path d="M33.546 4.63574C31.1891 2.71043 28.4291 1.332 25.4674 0.601031C22.5058 -0.129943 19.4172 -0.195026 16.427 0.41053C12.4454 1.2093 8.79256 3.16474 5.93176 6.02873C3.07097 8.89273 1.13123 12.5362 0.358633 16.4969C-0.205561 19.4665 -0.103038 22.5232 0.658888 25.449C1.42081 28.3748 2.82337 31.0976 4.76653 33.4231C6.56989 35.4443 7.60356 38.0289 7.68805 40.7282V48.3641C7.68805 50.3893 8.49805 52.3315 9.93987 53.7635C11.3817 55.1955 13.3372 56 15.3762 56H25.6272C27.6662 56 29.6217 55.1955 31.0636 53.7635C32.5054 52.3315 33.3154 50.3893 33.3154 48.3641V41.2118C33.4014 38.2316 34.5037 35.3688 36.4419 33.0923C39.8378 28.9199 41.4386 23.5851 40.8964 18.2471C40.3541 12.9091 37.7127 7.99933 33.546 4.58483V4.63574ZM28.1899 48.3641C28.1899 49.0391 27.9199 49.6866 27.4393 50.1639C26.9587 50.6412 26.3069 50.9094 25.6272 50.9094H15.3762C14.6966 50.9094 14.0447 50.6412 13.5641 50.1639C13.0835 49.6866 12.8135 49.0391 12.8135 48.3641V45.8188H28.1899V48.3641ZM32.4697 29.9361C29.8929 32.9716 28.3895 36.7627 28.1899 40.7282H23.0644V33.0923C23.0644 32.4172 22.7944 31.7698 22.3138 31.2924C21.8332 30.8151 21.1814 30.5469 20.5017 30.5469C19.822 30.5469 19.1702 30.8151 18.6896 31.2924C18.209 31.7698 17.939 32.4172 17.939 33.0923V40.7282H12.8135C12.7459 36.829 11.2937 33.0789 8.71314 30.1397C7.01057 28.1136 5.86567 25.6839 5.39007 23.0875C4.91448 20.4911 5.12442 17.8166 5.99943 15.3248C6.87444 12.833 8.38466 10.6089 10.3828 8.86941C12.381 7.1299 14.7989 5.93435 17.4008 5.39933C19.6369 4.94205 21.9475 4.98506 24.1648 5.52524C26.3821 6.06543 28.4505 7.08922 30.2197 8.5223C31.989 9.95538 33.4147 11.7618 34.3935 13.8103C35.3722 15.8589 35.8794 18.0982 35.8781 20.3657C35.8971 23.8524 34.6918 27.2367 32.4697 29.9361Z" fill="black"/>
</svg>
