<svg width="61" height="52" viewBox="0 0 61 52" fill="none" xmlns="http://www.w3.org/2000/svg">
<path d="M46.0336 15.8792H48.8396V24.6408L61 12.3219L48.8366 0V7.30743H46.0306C34.7639 7.30743 28.4138 15.6894 22.8079 23.0795C17.7693 29.7287 13.4139 35.4749 6.3806 35.4749H0V44.0436H6.38365C17.6503 44.0436 24.0004 35.6677 29.6063 28.2715C34.6449 21.6192 39.0004 15.8792 46.0336 15.8792ZM16.5005 21.2794C16.9824 20.658 17.4643 20.0181 17.9554 19.3722C19.1933 17.7164 20.4665 16.0873 21.7739 14.4863C17.7418 10.7086 12.8832 7.92276 6.38365 7.92276H0V16.4915H6.38365C10.431 16.4915 13.5877 18.3987 16.5005 21.2794ZM48.8366 36.0841H46.0306C41.7392 36.0841 38.4452 33.9381 35.383 30.7635L34.4589 31.9788C33.1138 33.7544 31.6681 35.6555 30.07 37.5443C34.2057 41.5975 39.2199 44.6589 46.0275 44.6589H48.8335V52L61 39.6781L48.8366 27.3562V36.0841Z" fill="black"/>
</svg>
