<svg width="29" height="29" viewBox="0 0 29 29" fill="none" xmlns="http://www.w3.org/2000/svg">
<path d="M28.25 13.125H22.5163L26.9712 8.67L25.0325 6.7175L18.625 13.125H15.875V10.375L22.2825 3.9675L20.33 2.02875L15.875 6.48375V0.75H13.125V6.48375L8.67 2.02875L6.7175 3.9675L13.125 10.375V13.125H10.375L3.9675 6.7175L2.02875 8.67L6.48375 13.125H0.75V15.875H6.48375L2.02875 20.33L3.9675 22.2825L10.375 15.875H13.125V18.625L6.7175 25.0325L8.67 26.9712L13.125 22.5163V28.25H15.875V22.5163L20.33 26.9712L22.2825 25.0325L15.875 18.625V15.875H18.625L25.0325 22.2825L26.9712 20.33L22.5163 15.875H28.25V13.125Z" fill="#0DCBF4"/>
</svg>
