<svg width="25" height="31" viewBox="0 0 25 31" fill="none" xmlns="http://www.w3.org/2000/svg">
<path d="M6.48854 27.6391C4.01354 24.7565 2.05664 22.4795 5.54804 16.3003C7.22444 13.3319 7.85804 10.9378 7.85474 8.94622C7.85474 5.45647 5.91434 3.19432 4.23629 1.23907C3.94433 0.903465 3.53315 0.694752 3.08992 0.657175C2.64668 0.619596 2.20623 0.756107 1.86194 1.03777C1.69299 1.17516 1.55332 1.34504 1.45118 1.53736C1.34903 1.72968 1.2865 1.94053 1.26727 2.15744C1.24804 2.37435 1.2725 2.59291 1.33922 2.8002C1.40594 3.00749 1.51355 3.1993 1.65569 3.36427C4.13399 6.24517 6.09089 8.52382 2.59619 14.7031C-2.01226 22.8673 1.27124 26.692 3.91124 29.7643C4.20343 30.0996 4.61473 30.308 5.05795 30.3453C5.50118 30.3826 5.94151 30.2458 6.28559 29.9639C6.45425 29.8264 6.59361 29.6565 6.69544 29.4642C6.79726 29.2719 6.85948 29.0612 6.8784 28.8444C6.89732 28.6276 6.87257 28.4093 6.8056 28.2022C6.73864 27.9952 6.63083 27.8037 6.48854 27.6391ZM10.0822 3.36427C12.5572 6.24517 14.5174 8.52382 11.0227 14.7031C6.41099 22.8673 9.69614 26.692 12.3345 29.7643C12.6267 30.0996 13.038 30.308 13.4812 30.3453C13.9244 30.3826 14.3648 30.2458 14.7088 29.9639C14.8777 29.8267 15.0174 29.6569 15.1195 29.4648C15.2216 29.2726 15.2842 29.0619 15.3034 28.8451C15.3226 28.6283 15.2982 28.4099 15.2315 28.2027C15.1648 27.9956 15.0572 27.8039 14.9151 27.6391C12.4384 24.7565 10.4815 22.4795 13.9713 16.3003C15.651 13.3319 16.2813 10.9378 16.2813 8.94622C16.2813 5.45647 14.3409 3.19432 12.6595 1.23907C12.3681 0.903205 11.9571 0.694265 11.5141 0.656673C11.071 0.619083 10.6307 0.755806 10.2868 1.03777C10.1178 1.17515 9.9781 1.34506 9.87598 1.53744C9.77385 1.72983 9.7114 1.94076 9.69232 2.15773C9.67324 2.3747 9.69792 2.59329 9.7649 2.80055C9.83188 3.0078 9.93979 3.1995 10.0822 3.36427ZM18.5071 3.36427C20.9854 6.24517 22.9423 8.52382 19.4509 14.7031C14.8392 22.8673 18.1227 26.692 20.7627 29.7643C21.0549 30.0996 21.4662 30.308 21.9094 30.3453C22.3526 30.3826 22.793 30.2458 23.137 29.9639C23.3059 29.8266 23.4454 29.6567 23.5474 29.4644C23.6493 29.2721 23.7116 29.0613 23.7306 28.8444C23.7495 28.6276 23.7247 28.4092 23.6576 28.2021C23.5905 27.9951 23.4825 27.8036 23.34 27.6391C20.865 24.7565 18.9097 22.4795 22.3995 16.3003C24.0759 13.3319 24.7095 10.9378 24.7095 8.94622C24.7095 5.45647 22.7658 3.19432 21.0877 1.23907C20.7958 0.903464 20.3846 0.694751 19.9414 0.657174C19.4981 0.619596 19.0577 0.756107 18.7134 1.03777C18.5446 1.1753 18.4051 1.34523 18.3031 1.53754C18.2011 1.72986 18.1387 1.94066 18.1194 2.1575C18.1002 2.37435 18.1246 2.59285 18.1912 2.80011C18.2578 3.00737 18.3652 3.1992 18.5071 3.36427Z" fill="#FBB041"/>
</svg>
